 <svg
      xmlns="http://www.w3.org/2000/svg"
      width="113"
      height="48"
      fill="none"
      viewBox="0 0 113 48"
    >
      <path
        fill="#059669"
        d="M19.15 19.167H32.703V32.72H19.15z"
        transform="rotate(-135 19.15 19.167)"
      ></path>
      <path
        fill="#34D399"
        d="M9.567 28.75H23.12V42.303H9.567z"
        transform="rotate(-135 9.567 28.75)"
      ></path>
      <path
        fill="#34D399"
        d="M28.733 47.917H42.286V61.47H28.733z"
        transform="rotate(-135 28.733 47.917)"
      ></path>
      <path
        fill="#34D399"
        d="M9.567 47.917H23.12V61.47H9.567z"
        transform="rotate(-135 9.567 47.917)"
      ></path>
      <path
        fill="#34D399"
        d="M28.733 28.75H42.286V42.303H28.733z"
        transform="rotate(-135 28.733 28.75)"
      ></path>
      <path
        fill="#059669"
        d="M38.317 38.333l-9.584-9.583 9.584-9.583v19.166zM-.017 19.167l9.584 9.583-9.584 9.583V19.167z"
      ></path>
      <path
        fill="#111827"
        d="M55.559 35l8.192-22.4h4.608L76.55 35h-4.352l-1.792-5.184H61.67L59.847 35h-4.288zm7.232-8.384h6.496l-3.264-9.312-3.232 9.312zM84.85 35c-1.664 0-2.997-.405-4-1.216-1.003-.81-1.504-2.25-1.504-4.32v-6.912h-2.72v-3.424h2.72l.48-4.256h3.616v4.256h4.288v3.424h-4.288v6.944c0 .768.16 1.301.48 1.6.341.277.917.416 1.728.416h1.984V35H84.85zm8.605-18.336c-.747 0-1.366-.224-1.856-.672-.47-.448-.704-1.013-.704-1.696s.234-1.237.704-1.664c.49-.448 1.109-.672 1.856-.672.746 0 1.354.224 1.824.672.49.427.736.981.736 1.664 0 .683-.246 1.248-.736 1.696-.47.448-1.078.672-1.824.672zM91.407 35V19.128h4.096V35h-4.096zm14.931.384c-1.408 0-2.645-.224-3.712-.672-1.067-.47-1.92-1.11-2.56-1.92a5.511 5.511 0 01-1.152-2.816h4.128c.128.619.469 1.152 1.024 1.6.576.427 1.312.64 2.208.64.896 0 1.547-.181 1.952-.544.427-.363.64-.779.64-1.248 0-.683-.299-1.141-.896-1.376-.597-.256-1.429-.501-2.496-.736-.683-.15-1.376-.33-2.08-.544a10.67 10.67 0 01-1.952-.8 4.526 4.526 0 01-1.408-1.28c-.363-.533-.544-1.184-.544-1.952 0-1.408.555-2.592 1.664-3.552 1.131-.96 2.709-1.44 4.736-1.44 1.877 0 3.371.437 4.48 1.312 1.131.875 1.803 2.08 2.016 3.616h-3.872c-.235-1.173-1.12-1.76-2.656-1.76-.768 0-1.365.15-1.792.448-.405.299-.608.672-.608 1.12 0 .47.309.843.928 1.12.619.277 1.44.533 2.464.768 1.109.256 2.123.544 3.04.864.939.299 1.685.757 2.24 1.376.555.597.832 1.461.832 2.592a4.461 4.461 0 01-.768 2.656c-.533.79-1.301 1.408-2.304 1.856-1.003.448-2.187.672-3.552.672z"
      ></path>
    </svg>